{"title":"Gold 2018 Hindi 720p PRE-DVDRip x264 AAC [MW]","magnet":"magnet:?xt=urn:btih:979da35f0866827f37cf4839763a2cffa6e1860a&dn=Gold+2018+Hindi+720p+PRE-DVDRip+x264+AAC+%5BMW%5D&tr=udp%3A%2F%2Ftracker.leechers-paradise.org%3A6969&tr=udp%3A%2F%2Fzer0day.ch%3A1337&tr=udp%3A%2F%2Fopen.demonii.com%3A1337&tr=udp%3A%2F%2Ftracker.coppersurfer.tk%3A6969&tr=udp%3A%2F%2Fexodus.desync.com%3A6969","uploader":"MFreaky","categoryP":"video","categoryS":"movies","size":"1448545323","seeders":"3","leechers":"33","description":" <a href=\"https://pichub.site/image/S4kzX\" rel=\"nofollow\" target=\"_NEW\">https://pichub.site/image/S4kzX</a> <a href=\"\nhttps://pichub.site/image/S4yqJ\" rel=\"nofollow\" target=\"_NEW\">\nhttps://pichub.site/image/S4yqJ</a> <a href=\"\nhttps://pichub.site/image/S4hw5\" rel=\"nofollow\" target=\"_NEW\">\nhttps://pichub.site/image/S4hw5</a> <a href=\"\nhttps://pichub.site/image/S4tTj\" rel=\"nofollow\" target=\"_NEW\">\nhttps://pichub.site/image/S4tTj</a> <a href=\"\nhttps://pichub.site/image/S4i0h\" rel=\"nofollow\" target=\"_NEW\">\nhttps://pichub.site/image/S4i0h</a> <a href=\"\nhttps://pichub.site/image/S48Er\" rel=\"nofollow\" target=\"_NEW\">\nhttps://pichub.site/image/S48Er</a>\r\n\r\nVideo\r\nID : 1\r\nFormat : AVC\r\nFormat/Info : Advanced Video Codec\r\nFormat profile : High@L4.1\r\nFormat settings : CABAC / 4 Ref Frames\r\nFormat settings, CABAC : Yes\r\nFormat settings, RefFrames : 4 frames\r\nCodec ID : V_MPEG4/ISO/AVC\r\nDuration : 2 h 21 min\r\nBit rate : 1 200 kb/s\r\nWidth : 1 280 pixels\r\nHeight : 558 pixels\r\nDisplay aspect ratio : 2.25:1\r\nFrame rate mode : Constant\r\nFrame rate : 25.000 FPS\r\nColor space : YUV\r\nChroma subsampling : 4:2:0\r\nBit depth : 8 bits\r\nScan type : Progressive\r\nBits/(Pixel*Frame) : 0.067\r\nStream size : 1.19 GiB (88%)\r\nWriting library : x264 core 155 r2901 7d0ff22\r\nDefault : Yes\r\nForced : No\r\n\r\nAudio\r\nID : 2\r\nFormat : AAC\r\nFormat/Info : Advanced Audio Codec\r\nFormat profile : LC\r\nCodec ID : A_AAC-2\r\nDuration : 2 h 21 min\r\nBit rate : 161 kb/s\r\nChannel(s) : 2 channels\r\nChannel positions : Front: L R\r\nSampling rate : 48.0 kHz\r\nFrame rate : 46.875 FPS (1024 SPF)\r\nCompression mode : Lossy\r\nStream size : 162 MiB (12%)\r\nLanguage : English\r\nDefault : Yes\r\nForced : No","last_updated":"2018-08-16T12:02:27.907Z","parsed":{"xt":"urn:btih:979da35f0866827f37cf4839763a2cffa6e1860a","dn":"Gold 2018 Hindi 720p PRE-DVDRip x264 AAC [MW]","tr":["udp://exodus.desync.com:6969","udp://open.demonii.com:1337","udp://tracker.coppersurfer.tk:6969","udp://tracker.leechers-paradise.org:6969","udp://zer0day.ch:1337"],"infoHash":"979da35f0866827f37cf4839763a2cffa6e1860a","infoHashBuffer":{"type":"Buffer","data":[151,157,163,95,8,102,130,127,55,207,72,57,118,58,44,255,166,225,134,10]},"name":"Gold 2018 Hindi 720p PRE-DVDRip x264 AAC [MW]","announce":["udp://exodus.desync.com:6969","udp://open.demonii.com:1337","udp://tracker.coppersurfer.tk:6969","udp://tracker.leechers-paradise.org:6969","udp://zer0day.ch:1337"],"urlList":[]}}